{"glyphs":{"0":{"ha":656,"x_min":28,"x_max":629,"o":"m 328 0 q 106 131 183 0 q 28 496 28 263 q 106 855 28 724 q 328 986 185 986 q 551 853 474 986 q 628 488 629 719 q 549 130 626 260 q 328 0 471 0 m 328 83 q 438 190 399 83 q 478 490 478 296 q 439 794 478 686 q 328 903 400 903 q 217 795 256 903 q 178 494 178 688 q 217 190 178 297 q 328 83 256 83 z "},"1":{"ha":318,"x_min":28,"x_max":290,"o":"m 242 90 q 254 41 242 64 q 290 7 267 18 l 290 0 l 54 0 l 54 7 q 90 41 78 18 q 103 90 103 64 l 103 826 l 40 810 l 28 847 l 158 972 l 242 972 l 242 90 z "},"2":{"ha":626,"x_min":28,"x_max":599,"o":"m 592 650 q 522 499 579 572 q 361 324 465 426 q 236 191 282 244 q 164 83 190 138 l 367 83 q 492 144 447 83 q 557 322 538 206 l 568 322 l 550 0 l 28 0 q 73 139 39 74 q 149 257 107 204 q 258 382 192 310 q 388 538 344 478 q 443 668 431 599 q 449 726 449 696 q 408 854 449 806 q 306 903 367 903 q 197 865 246 903 q 116 763 147 826 q 75 628 85 700 l 64 628 l 83 917 q 122 929 101 919 q 149 942 143 939 q 222 974 188 963 q 306 986 257 986 q 522 919 444 986 q 599 728 599 853 q 592 650 599 696 z "},"3":{"ha":639,"x_min":28,"x_max":611,"o":"m 611 965 q 533 900 568 949 l 372 626 q 517 508 467 590 q 568 326 568 425 q 531 167 568 242 q 422 46 494 92 q 250 0 350 0 q 167 12 201 0 q 93 44 132 24 q 67 57 88 47 q 28 69 46 67 l 104 322 l 115 322 q 110 258 110 293 q 148 131 110 178 q 250 83 186 83 q 376 157 331 83 q 422 331 422 231 q 374 508 422 433 q 236 583 325 583 l 236 650 l 369 889 l 244 889 q 119 828 164 889 q 54 650 74 767 l 43 650 l 61 972 l 611 972 l 611 965 z "},"4":{"ha":668,"x_min":28,"x_max":640,"o":"m 568 189 l 568 90 q 581 41 568 64 q 617 7 593 18 l 617 0 l 381 0 l 381 7 q 417 41 404 18 q 429 90 429 64 l 429 189 l 28 189 l 28 300 q 234 616 157 442 q 333 972 311 790 l 472 972 q 365 631 450 810 q 158 300 281 453 l 429 300 l 429 694 l 568 694 l 568 300 l 640 300 l 640 189 l 568 189 z "},"5":{"ha":608,"x_min":28,"x_max":581,"o":"m 229 653 q 424 593 344 643 q 542 469 503 543 q 581 314 581 396 q 543 160 581 232 q 434 44 506 88 q 264 0 363 0 q 170 13 208 0 q 92 46 132 25 q 58 61 75 54 q 28 69 42 68 l 104 322 l 115 322 q 110 258 110 293 q 151 130 110 176 q 264 83 192 83 q 388 153 340 83 q 435 321 435 224 q 403 463 435 396 q 306 572 372 529 q 139 614 239 614 q 90 611 124 614 l 90 650 l 122 896 q 115 938 124 922 q 83 965 106 954 l 83 972 l 536 972 l 513 650 l 501 650 q 465 826 497 764 q 353 889 432 889 l 260 889 l 229 653 z "},"6":{"ha":656,"x_min":28,"x_max":628,"o":"m 368 693 q 510 648 451 693 q 599 529 569 603 q 628 369 628 456 q 593 191 628 276 q 491 53 558 106 q 329 0 424 0 q 169 54 238 0 q 65 208 101 108 q 28 446 28 308 q 67 728 28 608 q 181 915 107 849 q 357 986 256 982 q 490 952 432 990 q 564 831 549 914 l 542 831 q 490 892 525 869 q 418 913 456 915 q 189 589 228 903 q 268 667 221 640 q 368 693 315 693 m 329 83 q 438 165 399 83 q 478 357 478 247 q 442 535 478 461 q 342 608 407 608 q 247 567 292 608 q 178 444 201 525 q 194 249 175 331 q 249 126 214 168 q 329 83 285 83 z "},"7":{"ha":589,"x_min":28,"x_max":561,"o":"m 561 972 l 561 889 q 355 473 429 685 q 263 0 281 261 l 103 0 q 226 464 133 253 q 468 889 319 675 l 229 889 q 103 828 149 889 q 39 650 58 767 l 28 650 l 46 972 l 561 972 z "},"8":{"ha":708,"x_min":28,"x_max":681,"o":"m 517 576 q 638 464 596 538 q 681 306 681 390 q 643 156 681 226 q 532 43 606 86 q 354 0 458 0 q 176 43 250 0 q 65 156 103 86 q 28 306 28 226 q 70 464 28 390 q 192 576 113 538 q 101 657 132 607 q 69 764 69 707 q 102 873 69 822 q 199 955 135 924 q 354 986 264 986 q 509 955 444 986 q 606 873 574 924 q 639 764 639 822 q 608 657 639 707 q 517 576 576 607 m 354 903 q 256 859 292 903 q 221 756 221 815 q 256 654 221 697 q 354 611 292 611 q 452 655 417 611 q 488 757 488 699 q 452 860 488 817 q 354 903 417 903 m 354 83 q 483 151 436 83 q 529 313 529 219 q 483 474 529 406 q 354 542 438 542 q 225 473 271 542 q 179 311 179 404 q 226 151 179 218 q 354 83 272 83 z "},"9":{"ha":656,"x_min":28,"x_max":628,"o":"m 326 986 q 486 932 418 986 q 591 778 554 878 q 628 540 628 678 q 588 258 628 378 q 474 71 549 138 q 299 0 400 4 q 165 34 224 -4 q 92 156 107 72 l 114 156 q 165 94 131 117 q 238 74 200 71 q 467 397 428 83 q 388 319 435 346 q 288 293 340 293 q 145 338 204 293 q 57 457 86 383 q 28 617 28 531 q 63 795 28 710 q 165 933 97 881 q 326 986 232 986 m 314 378 q 409 419 364 378 q 478 542 454 461 q 461 737 481 656 q 406 860 442 818 q 326 903 371 903 q 217 821 257 903 q 178 629 178 739 q 213 451 178 525 q 314 378 249 378 z "}," ":{"ha":278,"x_min":0,"x_max":0,"o":""},"A":{"ha":674,"x_min":-1,"x_max":646,"o":"m 646 965 q 610 931 622 954 q 597 882 597 908 l 597 90 q 610 41 597 64 q 646 7 622 18 l 646 0 l 410 0 l 410 7 q 446 41 433 18 q 458 90 458 64 l 458 556 q 429 590 453 576 q 368 603 406 603 q 236 567 307 603 l 225 561 q 214 501 217 522 q 186 190 186 335 q 286 -200 186 -89 l 276 -206 q 75 269 75 -67 q 94 501 75 372 l 99 525 q -1 597 21 522 l 7 604 q 42 592 19 592 q 115 610 67 592 q 242 874 157 775 q 458 972 328 972 l 646 972 l 646 965 m 251 660 q 325 668 289 668 q 406 654 371 668 q 458 614 440 640 l 458 889 q 338 823 390 883 q 251 660 286 763 z "},"B":{"ha":661,"x_min":-33,"x_max":635,"o":"m 633 311 q 577 70 635 172 q 418 -86 519 -32 q 188 -140 317 -140 q -33 -101 79 -140 l -33 -94 q 82 -103 25 -103 q 381 0 268 -103 q 492 314 493 103 q 453 467 492 404 q 339 553 414 531 q 215 528 281 538 l 215 0 l 28 0 l 28 7 q 64 41 51 18 q 76 90 76 64 l 76 882 q 64 931 76 908 q 28 965 51 954 l 28 972 l 215 972 q 444 950 363 972 q 558 885 526 928 q 590 776 590 843 q 467 600 590 664 q 590 481 549 556 q 633 311 632 407 m 215 569 q 449 778 449 626 q 433 847 449 824 q 368 879 417 869 q 215 889 319 889 l 215 569 z "},"C":{"ha":592,"x_min":28,"x_max":564,"o":"m 342 903 q 221 774 264 896 q 176 489 178 651 q 239 192 176 301 q 411 83 301 83 q 553 125 476 83 l 557 121 q 463 32 517 64 q 342 0 408 0 q 171 70 242 0 q 64 253 100 140 q 28 493 28 365 q 64 734 28 621 q 171 917 100 847 q 342 986 242 986 q 425 974 390 986 q 499 942 460 963 q 525 929 504 939 q 564 917 546 919 l 488 664 l 476 664 q 482 729 482 693 q 443 860 482 811 q 342 903 404 908 z "},"D":{"ha":631,"x_min":28,"x_max":603,"o":"m 215 972 q 428 906 340 972 q 559 730 515 839 q 603 496 603 621 q 558 256 603 369 q 424 71 513 142 q 215 0 336 0 l 28 0 l 28 7 q 64 41 51 18 q 76 90 76 64 l 76 882 q 64 931 76 908 q 28 965 51 954 l 28 972 l 215 972 m 215 83 q 347 144 290 83 q 432 301 403 204 q 461 506 461 399 q 434 694 461 607 q 351 835 407 782 q 215 889 296 889 l 215 83 z "},"E":{"ha":592,"x_min":28,"x_max":582,"o":"m 381 83 q 506 144 461 83 q 571 322 551 206 l 582 322 l 564 0 l 28 0 l 28 7 q 64 41 51 18 q 76 90 76 64 l 76 882 q 64 931 76 908 q 28 965 51 954 l 28 972 l 564 972 l 582 650 l 571 650 q 506 828 551 767 q 381 889 461 889 l 215 889 l 215 619 q 272 646 244 646 q 326 631 293 646 q 399 611 367 611 q 453 632 432 611 l 457 628 q 406 565 435 589 q 344 540 378 540 q 308 547 324 540 q 255 569 279 560 q 215 578 231 578 l 215 83 l 381 83 z "},"F":{"ha":592,"x_min":28,"x_max":582,"o":"m 582 650 l 571 650 q 506 828 551 767 q 381 889 461 889 l 215 889 l 215 619 q 272 646 244 646 q 326 631 293 646 q 399 611 367 611 q 453 632 432 611 l 457 628 q 406 565 435 589 q 344 540 378 540 q 308 547 324 540 q 255 569 279 560 q 215 578 231 578 l 215 90 q 228 41 215 64 q 264 7 240 18 l 264 0 l 28 0 l 28 7 q 64 41 51 18 q 76 90 76 64 l 76 882 q 64 931 76 908 q 28 965 51 954 l 28 972 l 564 972 l 582 650 z "},"G":{"ha":592,"x_min":28,"x_max":564,"o":"m 557 121 q 463 32 517 64 q 342 0 408 0 q 171 70 242 0 q 64 253 100 140 q 28 493 28 365 q 64 734 28 621 q 171 917 100 847 q 342 986 242 986 q 425 974 390 986 q 499 942 460 963 q 525 929 504 939 q 564 917 546 919 l 488 664 l 476 664 q 482 729 482 693 q 443 860 482 811 q 342 903 404 908 q 221 774 264 896 q 176 489 178 651 q 206 270 176 363 q 290 129 235 178 q 418 83 344 81 l 418 438 q 406 487 418 464 q 369 521 393 510 l 369 528 l 557 528 l 557 121 z "},"H":{"ha":667,"x_min":28,"x_max":639,"o":"m 639 965 q 603 931 615 954 q 590 882 590 908 l 590 90 q 603 41 590 64 q 639 7 615 18 l 639 0 l 403 0 l 403 7 q 439 41 426 18 q 451 90 451 64 l 451 613 q 358 554 408 554 q 322 563 340 554 q 269 584 293 575 q 231 593 246 593 q 215 590 226 593 l 215 90 q 228 41 215 64 q 264 7 240 18 l 264 0 l 28 0 l 28 7 q 64 41 51 18 q 76 90 76 64 l 76 882 q 64 931 76 908 q 28 965 51 954 l 28 972 l 264 972 l 264 965 q 228 931 240 954 q 215 882 215 908 l 215 621 q 250 650 233 640 q 286 660 267 660 q 340 646 311 660 q 413 626 381 626 q 451 636 436 626 l 451 882 q 439 931 451 908 q 403 965 426 954 l 403 972 l 639 972 l 639 965 z "},"I":{"ha":292,"x_min":28,"x_max":264,"o":"m 264 965 q 228 931 240 954 q 215 882 215 908 l 215 90 q 228 41 215 64 q 264 7 240 18 l 264 0 l 28 0 l 28 7 q 64 41 51 18 q 76 90 76 64 l 76 882 q 64 931 76 908 q 28 965 51 954 l 28 972 l 264 972 l 264 965 z "},"J":{"ha":596,"x_min":28,"x_max":568,"o":"m 568 965 q 532 931 544 954 q 519 882 519 908 l 519 219 q 443 33 519 96 q 250 -29 367 -29 q 170 -18 203 -29 q 93 15 138 -7 q 60 33 76 25 q 28 42 43 40 l 104 294 l 115 294 q 110 236 110 267 q 152 105 110 154 q 260 56 194 56 q 348 103 315 56 q 381 222 381 150 l 381 889 l 354 889 q 228 828 274 889 q 164 650 183 767 l 153 650 l 171 972 l 568 972 l 568 965 z "},"K":{"ha":693,"x_min":28,"x_max":665,"o":"m 665 965 q 575 897 613 943 l 389 651 l 606 69 q 665 7 628 24 l 665 0 l 446 0 l 446 7 q 474 46 474 18 q 469 71 474 58 l 311 550 l 215 424 l 215 90 q 228 41 215 64 q 264 7 240 18 l 264 0 l 28 0 l 28 7 q 64 41 51 18 q 76 90 76 64 l 76 882 q 64 931 76 908 q 28 965 51 954 l 28 972 l 264 972 l 264 965 q 228 931 240 954 q 215 882 215 908 l 215 581 l 435 890 q 453 938 453 917 q 432 965 453 958 l 432 972 l 665 972 l 665 965 z "},"L":{"ha":300,"x_min":28,"x_max":1115,"o":"m 806 -90 q 961 -67 885 -90 q 1115 11 1038 -44 l 1115 0 q 978 -153 1058 -101 q 778 -204 897 -204 q 658 -183 715 -204 q 506 -115 601 -162 q 300 -26 389 -57 q 100 4 211 4 q 28 0 65 4 l 28 7 q 64 41 51 18 q 76 90 76 64 l 76 882 q 64 931 76 908 q 28 965 51 954 l 28 972 l 264 972 l 264 965 q 228 931 240 954 q 215 882 215 908 l 215 83 q 360 51 296 74 q 510 -10 425 29 q 665 -71 601 -51 q 806 -90 728 -90 z "},"M":{"ha":786,"x_min":28,"x_max":758,"o":"m 758 965 q 722 931 735 954 q 710 882 710 908 l 710 90 q 722 41 710 64 q 758 7 735 18 l 758 0 l 522 0 l 522 7 q 558 41 546 18 q 571 90 571 64 l 571 557 l 424 0 l 363 0 l 215 557 l 215 90 q 228 41 215 64 q 264 7 240 18 l 264 0 l 28 0 l 28 7 q 64 41 51 18 q 76 90 76 64 l 76 882 q 64 931 76 908 q 28 965 51 954 l 28 972 l 215 972 l 393 300 l 571 972 l 758 972 l 758 965 z "},"N":{"ha":667,"x_min":28,"x_max":639,"o":"m 639 965 q 603 931 615 954 q 590 882 590 908 l 590 90 q 603 41 590 64 q 639 7 615 18 l 639 0 l 403 0 l 403 7 q 439 41 426 18 q 451 90 451 64 l 451 549 q 328 701 451 617 q 249 762 271 742 q 215 808 226 782 l 215 90 q 228 41 215 64 q 264 7 240 18 l 264 0 l 28 0 l 28 7 q 64 41 51 18 q 76 90 76 64 l 76 882 q 64 931 76 908 q 28 965 51 954 l 28 972 l 215 972 q 243 901 215 932 q 335 821 271 869 q 415 757 389 781 q 451 708 440 733 l 451 882 q 439 931 451 908 q 403 965 426 954 l 403 972 l 639 972 l 639 965 z "},"O":{"ha":892,"x_min":28,"x_max":864,"o":"m 446 0 q 218 70 313 0 q 76 253 124 140 q 28 493 28 365 q 76 734 28 621 q 218 917 124 847 q 446 986 313 986 q 674 917 579 986 q 816 734 768 847 q 864 493 864 621 q 816 253 864 365 q 674 70 768 140 q 446 0 579 0 m 446 83 q 592 142 532 83 q 684 294 653 200 q 715 493 715 388 q 684 694 715 600 q 592 845 653 788 q 446 903 532 903 q 299 845 360 903 q 208 694 239 788 q 178 493 178 600 q 208 294 178 388 q 299 142 239 200 q 446 83 360 83 z "},"P":{"ha":618,"x_min":28,"x_max":590,"o":"m 590 776 q 497 623 590 676 q 215 569 404 569 l 215 90 q 228 41 215 64 q 264 7 240 18 l 264 0 l 28 0 l 28 7 q 64 41 51 18 q 76 90 76 64 l 76 882 q 64 931 76 908 q 28 965 51 954 l 28 972 l 215 972 q 499 923 407 972 q 590 776 590 874 m 215 653 q 392 683 336 653 q 449 778 449 713 q 396 865 449 840 q 215 889 343 889 l 215 653 z "},"Q":{"ha":683,"x_min":28,"x_max":656,"o":"m 494 -4 q 585 -158 567 -4 l 579 -158 q 506 -115 557 -115 q 413 -136 478 -115 q 340 -155 367 -149 q 286 -161 314 -161 q 208 -115 235 -161 q 181 -1 181 -69 q 186 57 181 18 q 69 238 110 119 q 28 493 28 357 q 64 733 28 621 q 171 916 100 846 q 342 986 242 986 q 513 917 442 986 q 619 734 583 847 q 656 493 656 621 q 619 253 656 365 q 513 70 583 140 q 342 0 442 0 q 215 35 274 0 q 233 -29 215 -8 q 282 -50 251 -50 q 376 -29 311 -50 q 494 -4 451 -4 m 342 903 q 252 845 289 903 q 197 694 215 788 q 178 493 178 600 q 197 294 178 388 q 252 142 215 200 q 342 83 289 83 q 432 142 394 83 q 488 294 469 200 q 507 493 507 388 q 488 694 507 600 q 432 845 469 788 q 342 903 394 903 z "},"R":{"ha":707,"x_min":28,"x_max":704,"o":"m 410 590 q 547 215 478 386 q 704 -128 617 44 l 694 -128 l 478 0 l 303 572 q 215 569 250 569 l 215 90 q 228 41 215 64 q 264 7 240 18 l 264 0 l 28 0 l 28 7 q 64 41 51 18 q 76 90 76 64 l 76 882 q 64 931 76 908 q 28 965 51 954 l 28 972 l 215 972 q 499 923 407 972 q 590 776 590 874 q 410 590 590 636 m 215 653 q 392 683 336 653 q 449 778 449 713 q 396 865 449 840 q 215 889 343 889 l 215 653 z "},"S":{"ha":599,"x_min":28,"x_max":571,"o":"m 278 0 q 175 13 217 0 q 89 47 133 25 q 28 69 51 67 l 104 322 l 115 322 q 110 260 110 293 q 153 131 110 178 q 278 83 197 83 q 385 122 347 83 q 422 226 422 161 q 419 260 422 238 q 372 350 413 308 q 251 451 332 392 q 147 536 186 501 q 78 616 107 571 q 46 715 49 661 q 74 852 42 790 q 168 950 106 914 q 314 986 231 986 q 417 974 375 986 q 503 939 458 961 q 564 917 540 919 l 488 664 l 476 664 q 483 732 483 703 q 446 857 483 811 q 336 903 408 903 q 236 869 271 903 q 201 776 201 835 q 226 685 201 726 q 285 613 250 644 q 379 536 319 581 q 480 454 442 489 q 544 373 518 419 q 571 269 571 326 q 490 73 571 146 q 278 0 410 0 z "},"T":{"ha":642,"x_min":10,"x_max":632,"o":"m 632 650 l 621 650 q 556 828 601 767 q 431 889 511 889 l 390 889 l 390 90 q 403 41 390 64 q 439 7 415 18 l 439 0 l 203 0 l 203 7 q 239 41 226 18 q 251 90 251 64 l 251 889 l 211 889 q 85 828 131 889 q 21 650 40 767 l 10 650 l 28 972 l 614 972 l 632 650 z "},"U":{"ha":667,"x_min":28,"x_max":639,"o":"m 639 965 q 603 931 615 954 q 590 882 590 908 l 590 219 q 553 100 590 150 q 458 24 517 50 q 332 -1 399 -1 q 207 24 265 -1 q 113 99 149 49 q 76 219 76 149 l 76 882 q 64 931 76 908 q 28 965 51 954 l 28 972 l 264 972 l 264 965 q 228 931 240 954 q 215 882 215 908 l 215 222 q 251 120 215 157 q 333 83 286 83 q 417 120 382 83 q 451 222 451 157 l 451 882 q 439 931 451 908 q 403 965 426 954 l 403 972 l 639 972 l 639 965 z "},"V":{"ha":722,"x_min":28,"x_max":694,"o":"m 694 965 q 652 934 669 956 q 628 888 635 913 l 438 0 l 285 0 l 94 888 q 70 934 88 913 q 28 965 53 956 l 28 972 l 283 972 l 283 965 q 247 935 260 956 q 236 893 235 915 l 361 194 l 486 893 q 475 935 488 915 q 439 965 463 956 l 439 972 l 694 972 l 694 965 z "},"W":{"ha":1011,"x_min":28,"x_max":983,"o":"m 983 965 q 942 935 960 956 q 918 890 925 914 l 790 0 l 638 0 l 506 660 l 374 0 l 221 0 l 93 893 q 69 935 86 915 q 28 965 51 956 l 28 972 l 283 972 l 283 965 q 246 931 257 954 q 238 882 235 908 l 306 243 l 436 972 l 575 972 l 706 243 l 774 882 q 765 931 776 908 q 728 965 754 954 l 728 972 l 983 972 l 983 965 z "},"X":{"ha":758,"x_min":28,"x_max":731,"o":"m 653 78 q 688 33 669 51 q 731 7 706 15 l 731 0 l 446 0 l 446 7 q 490 64 490 24 q 481 107 490 78 l 354 372 l 242 90 q 228 42 228 57 q 253 7 228 17 l 253 0 l 33 0 l 33 7 q 101 79 76 25 l 290 506 l 106 894 q 71 939 89 921 q 28 965 53 957 l 28 972 l 313 972 l 313 965 q 268 908 268 949 q 278 865 268 894 l 390 632 l 499 893 q 508 931 508 915 q 483 965 508 954 l 483 972 l 703 972 l 703 965 q 636 900 664 949 l 450 504 l 653 78 z "},"Y":{"ha":731,"x_min":28,"x_max":703,"o":"m 703 965 q 622 906 650 949 l 436 551 l 436 90 q 449 41 436 64 q 485 7 461 18 l 485 0 l 249 0 l 249 7 q 285 41 272 18 q 297 90 297 64 l 297 549 l 296 549 l 108 906 q 28 965 81 949 l 28 972 l 283 972 l 283 965 q 250 918 250 951 q 253 896 250 903 l 365 632 l 478 896 q 481 918 481 903 q 447 965 481 951 l 447 972 l 703 972 l 703 965 z "},"Z":{"ha":681,"x_min":28,"x_max":653,"o":"m 653 965 q 589 900 613 947 l 256 83 l 422 83 q 548 144 503 83 q 613 322 593 206 l 624 322 l 606 0 l 28 0 l 28 7 q 94 72 68 25 l 450 889 l 328 889 q 202 828 247 889 q 138 650 157 767 l 126 650 l 144 972 l 653 972 l 653 965 z "},"a":{"ha":628,"x_min":28,"x_max":600,"o":"m 551 90 q 564 41 551 64 q 600 7 576 18 l 600 0 l 413 0 l 413 129 q 341 34 389 68 q 233 0 293 0 q 122 31 168 0 q 51 110 75 61 q 28 217 28 160 q 56 333 28 278 q 138 422 83 388 q 269 456 192 456 q 352 434 315 456 q 413 382 389 413 l 413 468 q 384 587 413 543 q 301 631 356 631 q 200 585 239 631 q 157 457 161 539 l 146 457 l 100 639 q 139 651 118 642 q 165 664 160 661 q 239 697 204 685 q 322 708 274 708 q 551 468 553 708 l 551 90 m 271 82 q 360 116 319 82 q 413 215 401 150 l 413 321 q 368 370 397 353 q 304 388 339 388 q 282 386 289 388 q 192 328 224 375 q 161 222 161 282 q 190 124 161 165 q 271 82 219 82 z "},"b":{"ha":640,"x_min":28,"x_max":613,"o":"m 404 710 q 519 662 472 710 q 589 537 565 614 q 613 369 613 460 q 588 190 613 275 q 515 53 563 106 q 404 0 468 0 q 283 40 329 0 q 215 150 236 81 l 215 0 l 28 0 l 28 7 q 64 41 51 18 q 76 90 76 64 l 76 896 q 28 979 76 964 l 28 986 l 215 1014 l 215 560 q 283 669 236 629 q 404 710 329 710 m 344 79 q 435 163 403 79 q 468 360 468 246 q 435 551 468 471 q 344 631 403 631 q 257 572 292 631 q 215 428 222 514 l 215 282 q 257 138 222 196 q 344 79 292 79 z "},"c":{"ha":565,"x_min":28,"x_max":538,"o":"m 297 0 q 150 49 211 0 q 58 178 89 99 q 28 350 28 258 q 63 526 28 444 q 165 658 99 608 q 319 708 232 708 q 399 697 367 708 q 472 665 432 686 q 506 648 489 656 q 538 639 522 640 l 496 435 l 485 435 q 441 573 482 515 q 336 631 400 631 q 251 594 289 631 q 193 497 214 557 q 172 368 172 436 q 218 175 172 257 q 344 93 264 93 q 514 186 450 93 l 528 183 q 439 50 497 100 q 297 0 381 0 z "},"d":{"ha":640,"x_min":28,"x_max":613,"o":"m 564 90 q 576 41 564 64 q 613 7 589 18 l 613 0 l 425 0 l 425 150 q 358 40 404 81 q 236 0 311 0 q 122 48 168 0 q 51 173 75 96 q 28 340 28 250 q 53 519 28 435 q 125 657 78 604 q 236 710 172 710 q 358 669 311 710 q 425 560 404 629 l 425 896 q 376 979 425 964 l 376 986 l 564 1014 l 564 90 m 296 79 q 383 138 349 79 q 425 282 418 196 l 425 428 q 383 572 418 514 q 296 631 349 631 q 205 547 238 631 q 172 350 172 464 q 205 159 172 239 q 296 79 238 79 z "},"e":{"ha":565,"x_min":28,"x_max":542,"o":"m 297 708 q 432 667 376 708 q 515 551 488 625 q 538 383 542 476 l 174 333 q 228 163 183 232 q 344 93 272 93 q 514 186 450 93 l 528 183 q 439 50 497 100 q 297 0 381 0 q 150 49 211 0 q 58 179 89 99 q 28 350 28 260 q 59 525 28 443 q 151 658 90 607 q 297 708 213 708 m 297 639 q 210 574 243 639 q 172 415 176 510 l 411 449 q 377 587 407 535 q 297 639 347 639 z "},"f":{"ha":447,"x_min":28,"x_max":419,"o":"m 263 935 q 326 923 301 935 q 379 889 351 911 q 419 865 406 868 l 374 683 l 363 683 q 340 811 358 765 q 286 857 321 857 q 235 820 251 857 q 218 694 218 783 l 321 694 l 321 611 l 218 611 l 218 90 q 231 41 218 64 q 267 7 243 18 l 267 0 l 31 0 l 31 7 q 67 41 54 18 q 79 90 79 64 l 79 611 l 28 611 l 28 694 l 79 694 q 263 935 78 935 z "},"g":{"ha":585,"x_min":28,"x_max":557,"o":"m 264 103 q 319 104 283 104 q 497 67 438 104 q 549 -72 556 31 q 522 -149 546 -111 q 456 -210 499 -186 q 356 -235 413 -235 q 297 -230 322 -235 q 232 -214 272 -225 q 139 -196 175 -196 q 101 -206 114 -196 q 89 -232 89 -217 q 92 -249 89 -237 l 81 -253 q 57 -208 67 -235 q 47 -154 47 -181 q 63 -100 47 -122 q 111 -71 79 -78 q 151 -67 132 -67 q 275 -90 199 -67 q 313 -100 288 -93 q 356 -110 338 -107 q 411 -115 394 -115 q 481 -102 454 -115 q 508 -64 508 -89 q 469 -29 508 -39 q 358 -19 429 -19 q 301 -21 321 -19 l 240 -22 q 99 3 146 -22 q 53 88 53 29 q 67 147 53 117 q 108 213 81 176 q 48 307 68 253 q 28 421 28 361 q 59 560 28 494 q 151 667 90 626 q 297 708 213 708 q 396 690 349 708 q 427 699 417 690 q 441 727 438 707 q 444 792 444 747 l 556 792 q 483 646 556 646 q 464 649 478 646 q 533 549 508 608 q 557 422 557 489 q 527 284 557 349 q 439 179 497 219 q 297 139 381 139 q 128 194 197 139 q 113 150 113 168 q 149 112 113 124 q 264 103 185 100 m 297 639 q 208 575 240 639 q 176 424 176 511 q 208 272 176 336 q 297 208 240 208 q 381 273 350 208 q 411 425 411 338 q 381 576 411 513 q 297 639 351 639 z "},"h":{"ha":646,"x_min":28,"x_max":618,"o":"m 569 90 q 582 41 569 64 q 618 7 594 18 l 618 0 l 382 0 l 382 7 q 418 41 406 18 q 431 90 431 64 l 431 468 q 411 592 431 554 q 344 631 392 631 q 249 572 282 631 q 215 428 215 514 l 215 90 q 228 41 215 64 q 264 7 240 18 l 264 0 l 28 0 l 28 7 q 64 41 51 18 q 76 90 76 64 l 76 896 q 28 979 76 964 l 28 986 l 215 1014 l 215 560 q 283 669 236 629 q 404 710 329 710 q 569 468 574 710 l 569 90 z "},"i":{"ha":292,"x_min":28,"x_max":264,"o":"m 139 731 q 78 757 100 731 q 56 821 56 783 q 78 883 56 857 q 139 910 100 910 q 200 883 178 910 q 222 821 222 857 q 200 757 222 783 q 139 731 178 731 m 215 90 q 228 41 215 64 q 264 7 240 18 l 264 0 l 28 0 l 28 7 q 64 41 51 18 q 76 90 76 64 l 76 576 q 28 660 76 644 l 28 667 l 215 694 l 215 90 z "},"j":{"ha":250,"x_min":7,"x_max":222,"o":"m 139 731 q 78 757 100 731 q 56 821 56 783 q 78 883 56 857 q 139 910 100 910 q 200 883 178 910 q 222 821 222 857 q 200 757 222 783 q 139 731 178 731 m 28 667 l 215 694 l 215 0 q 11 -186 215 -165 l 7 -175 q 63 -109 49 -156 q 76 18 76 -62 l 76 576 q 28 660 76 644 l 28 667 z "},"k":{"ha":708,"x_min":28,"x_max":667,"o":"m 667 688 q 594 656 625 675 q 529 603 564 638 l 406 465 l 589 78 q 667 7 621 24 l 667 0 l 382 0 l 382 7 q 425 64 425 22 q 415 108 425 85 l 300 350 l 215 256 l 215 90 q 228 41 215 64 q 264 7 240 18 l 264 0 l 28 0 l 28 7 q 64 41 51 18 q 76 90 76 64 l 76 896 q 28 979 76 964 l 28 986 l 215 1014 l 215 386 l 393 589 q 438 663 438 638 q 417 688 438 681 l 417 694 l 667 694 l 667 688 z "},"l":{"ha":292,"x_min":28,"x_max":264,"o":"m 215 90 q 228 41 215 64 q 264 7 240 18 l 264 0 l 28 0 l 28 7 q 64 41 51 18 q 76 90 76 64 l 76 896 q 28 979 76 964 l 28 986 l 215 1014 l 215 90 z "},"m":{"ha":1000,"x_min":28,"x_max":972,"o":"m 924 90 q 936 41 924 64 q 972 7 949 18 l 972 0 l 736 0 l 736 7 q 772 41 760 18 q 785 90 785 64 l 785 468 q 765 592 785 554 q 699 631 746 631 q 603 572 636 631 q 569 428 569 514 l 569 90 q 582 41 569 64 q 618 7 594 18 l 618 0 l 382 0 l 382 7 q 418 41 406 18 q 431 90 431 64 l 431 468 q 411 592 431 554 q 344 631 392 631 q 249 572 282 631 q 215 428 215 514 l 215 90 q 228 41 215 64 q 264 7 240 18 l 264 0 l 28 0 l 28 7 q 64 41 51 18 q 76 90 76 64 l 76 576 q 28 660 76 644 l 28 667 l 215 694 l 215 560 q 283 669 236 629 q 404 710 329 710 q 565 546 546 710 q 633 666 585 622 q 758 710 681 710 q 924 468 928 710 l 924 90 z "},"n":{"ha":646,"x_min":28,"x_max":618,"o":"m 569 90 q 582 41 569 64 q 618 7 594 18 l 618 0 l 382 0 l 382 7 q 418 41 406 18 q 431 90 431 64 l 431 468 q 411 592 431 554 q 344 631 392 631 q 249 572 282 631 q 215 428 215 514 l 215 90 q 228 41 215 64 q 264 7 240 18 l 264 0 l 28 0 l 28 7 q 64 41 51 18 q 76 90 76 64 l 76 576 q 28 660 76 644 l 28 667 l 215 694 l 215 560 q 283 669 236 629 q 404 710 329 710 q 569 468 574 710 l 569 90 z "},"o":{"ha":585,"x_min":28,"x_max":557,"o":"m 297 0 q 150 49 211 0 q 58 179 89 99 q 28 350 28 260 q 59 525 28 443 q 151 658 90 607 q 297 708 213 708 q 438 658 379 708 q 527 525 497 607 q 557 351 557 443 q 527 179 557 260 q 439 49 497 99 q 297 0 381 0 m 297 69 q 381 155 350 69 q 411 356 411 240 q 381 555 411 471 q 297 639 351 639 q 208 555 240 639 q 176 356 176 471 q 208 154 176 239 q 297 69 240 69 z "},"p":{"ha":640,"x_min":28,"x_max":613,"o":"m 404 710 q 519 662 472 710 q 589 537 565 614 q 613 369 613 460 q 588 190 613 275 q 515 53 563 106 q 404 0 468 0 q 283 40 329 0 q 215 150 236 81 l 215 -222 l 28 -222 l 28 -215 q 64 -181 51 -204 q 76 -132 76 -158 l 76 576 q 28 660 76 644 l 28 667 l 215 694 l 215 560 q 283 669 236 629 q 404 710 329 710 m 344 79 q 435 163 403 79 q 468 360 468 246 q 435 551 468 471 q 344 631 403 631 q 257 572 292 631 q 215 428 222 514 l 215 282 q 257 138 222 196 q 344 79 292 79 z "},"q":{"ha":640,"x_min":28,"x_max":613,"o":"m 613 660 q 564 576 564 644 l 564 -104 q 613 -187 564 -172 l 613 -194 l 425 -222 l 425 150 q 358 40 404 81 q 236 0 311 0 q 122 48 168 0 q 51 173 75 96 q 28 340 28 250 q 53 519 28 435 q 125 657 78 604 q 236 710 172 710 q 358 669 311 710 q 425 560 404 629 l 425 694 l 613 667 l 613 660 m 296 79 q 383 138 349 79 q 425 282 418 196 l 425 428 q 383 572 418 514 q 296 631 349 631 q 205 547 238 631 q 172 350 172 464 q 205 159 172 239 q 296 79 238 79 z "},"r":{"ha":474,"x_min":28,"x_max":446,"o":"m 215 535 q 302 661 242 613 q 446 710 363 710 l 399 554 q 342 568 371 568 q 256 529 292 568 q 215 428 221 490 l 215 90 q 228 41 215 64 q 264 7 240 18 l 264 0 l 28 0 l 28 7 q 64 41 51 18 q 76 90 76 64 l 76 576 q 28 660 76 644 l 28 667 l 215 694 l 215 535 z "},"s":{"ha":522,"x_min":28,"x_max":494,"o":"m 269 0 q 165 13 206 0 q 86 47 125 25 q 28 69 50 67 l 79 322 l 90 322 q 134 150 90 222 q 250 78 178 78 q 319 99 293 78 q 346 154 346 119 q 314 233 346 199 q 215 317 282 268 q 96 422 138 374 q 54 538 54 469 q 84 624 54 585 q 166 686 114 664 q 282 708 218 708 q 338 703 313 708 q 394 690 363 699 q 460 678 438 678 q 486 681 469 678 l 390 435 l 379 435 q 396 531 396 492 q 370 610 396 585 q 301 636 344 636 q 226 615 256 636 q 196 557 196 593 q 226 491 196 522 q 318 414 256 460 q 410 339 375 371 q 469 265 444 307 q 494 171 494 222 q 458 77 494 115 q 369 19 422 39 q 269 0 317 0 z "},"t":{"ha":404,"x_min":28,"x_max":376,"o":"m 217 611 l 217 199 q 234 124 217 150 q 279 99 251 99 q 322 111 300 99 q 363 149 343 124 l 376 146 q 302 37 347 74 q 210 0 257 0 q 116 48 154 0 q 78 181 78 96 l 78 611 l 28 611 l 28 694 q 100 719 63 694 q 167 785 138 743 q 206 872 196 826 l 217 872 l 217 694 l 376 694 l 376 611 l 217 611 z "},"u":{"ha":646,"x_min":28,"x_max":618,"o":"m 569 118 q 618 35 569 50 l 618 28 l 431 0 l 431 135 q 363 25 410 65 q 242 -15 317 -15 q 76 226 72 -15 l 76 576 q 28 660 76 644 l 28 667 l 215 694 l 215 226 q 235 102 215 140 q 301 64 254 64 q 397 122 364 64 q 431 267 431 181 l 431 576 q 382 660 431 644 l 382 667 l 569 694 l 569 118 z "},"v":{"ha":697,"x_min":28,"x_max":669,"o":"m 669 688 q 592 617 610 667 l 404 0 l 293 0 l 106 617 q 28 688 88 667 l 28 694 l 282 694 l 282 688 q 247 618 239 669 l 356 192 l 464 618 q 465 632 465 622 q 429 688 465 672 l 429 694 l 669 694 l 669 688 z "},"w":{"ha":925,"x_min":28,"x_max":897,"o":"m 897 688 q 824 613 839 668 l 674 0 l 563 0 l 464 538 l 354 0 l 243 0 l 93 615 q 71 660 85 643 q 28 688 57 678 l 28 694 l 274 694 l 274 688 q 233 619 231 671 l 308 239 l 406 694 l 525 694 l 622 239 l 697 619 q 657 688 700 671 l 657 694 l 897 694 l 897 688 z "},"x":{"ha":711,"x_min":28,"x_max":683,"o":"m 425 343 l 554 90 q 596 40 569 61 q 656 7 622 18 l 656 0 l 410 0 l 410 7 q 443 50 443 22 q 436 79 443 61 l 361 238 l 261 74 q 251 39 251 51 q 274 7 251 17 l 274 0 l 28 0 l 28 7 q 128 90 90 28 l 293 361 l 150 624 q 61 688 118 669 l 61 694 l 307 694 l 307 688 q 274 643 274 674 q 281 613 274 631 l 357 468 l 449 619 q 460 656 460 639 q 438 688 460 678 l 438 694 l 683 694 l 683 688 q 594 621 628 669 l 425 343 z "},"y":{"ha":688,"x_min":28,"x_max":660,"o":"m 660 688 q 578 604 594 665 l 417 85 q 313 -128 376 -51 q 147 -206 249 -206 q 85 -199 122 -206 l 106 -64 q 190 -81 165 -81 q 264 -44 238 -81 q 319 85 290 -8 l 322 93 l 321 93 l 106 614 q 75 660 93 642 q 28 688 57 678 l 28 694 l 282 694 l 282 688 q 243 631 243 672 q 244 615 243 621 l 363 257 l 454 617 q 456 632 456 622 q 419 688 456 674 l 419 694 l 660 694 l 660 688 z "},"z":{"ha":576,"x_min":28,"x_max":549,"o":"m 549 617 l 181 78 l 307 78 q 440 104 386 78 q 510 201 493 131 l 521 201 l 510 -14 q 431 -2 469 -4 q 292 0 393 0 l 28 0 l 28 78 l 392 617 l 297 617 q 165 590 218 617 q 94 493 111 564 l 83 493 l 94 708 q 173 697 135 699 q 313 694 211 694 l 549 694 l 549 617 z "},"":{"ha":1439,"x_min":10,"x_max":1429,"o":"m 1344 449 q 1411 361 1393 413 q 1429 239 1429 310 q 1426 149 1429 210 q 1422 57 1422 103 q 1429 -28 1422 6 q 1359 -5 1413 -10 q 1208 0 1306 0 l 1207 0 l 875 0 l 875 7 q 911 41 899 18 q 924 90 924 64 l 924 557 q 831 499 881 499 q 794 507 813 499 q 742 528 765 519 q 703 538 718 538 q 688 535 699 538 l 688 90 q 700 41 688 64 q 736 7 713 18 l 736 0 l 500 0 l 500 7 q 536 41 524 18 q 549 90 549 64 l 549 743 q 536 792 549 769 q 500 826 524 815 l 500 833 l 688 833 l 688 565 q 722 594 706 585 q 758 604 739 604 q 813 590 783 604 q 885 571 853 571 q 924 581 908 571 l 924 882 q 911 931 924 908 q 875 965 899 954 l 875 972 l 1207 972 q 1351 974 1310 972 q 1429 986 1392 976 q 1424 944 1424 969 q 1426 896 1424 929 q 1429 835 1429 857 q 1416 741 1429 786 q 1367 651 1403 696 l 1356 651 q 1374 749 1374 704 q 1328 853 1374 818 q 1207 889 1283 889 l 1063 889 l 1063 619 q 1119 646 1092 646 q 1174 631 1140 646 q 1246 611 1214 611 q 1300 632 1279 611 l 1304 628 q 1253 565 1282 589 q 1192 540 1225 540 q 1156 547 1171 540 q 1102 569 1126 560 q 1063 578 1078 578 l 1063 83 l 1207 83 q 1302 113 1261 83 q 1365 190 1343 142 q 1386 292 1386 238 q 1333 444 1386 382 l 1344 449 m 390 90 q 403 41 390 64 q 439 7 415 18 l 439 0 l 203 0 l 203 7 q 239 41 226 18 q 251 90 251 64 l 251 889 l 211 889 q 85 828 131 889 q 21 650 40 767 l 10 650 l 28 972 l 808 972 l 826 650 l 815 650 q 782 782 801 732 q 726 860 763 832 q 625 889 689 889 l 390 889 l 390 90 z "},"⁄":{"ha":764,"x_min":28,"x_max":736,"o":"m 736 972 l 160 0 l 28 0 l 604 972 l 736 972 z "},".":{"ha":222,"x_min":28,"x_max":194,"o":"m 111 0 q 50 26 72 0 q 28 90 28 53 q 50 153 28 126 q 111 179 72 179 q 172 153 150 179 q 194 90 194 126 q 172 26 194 53 q 111 0 150 0 z "},",":{"ha":222,"x_min":28,"x_max":196,"o":"m 154 168 q 185 137 175 157 q 196 92 196 117 q 160 -5 196 40 q 71 -56 125 -50 l 69 -49 q 111 0 104 -35 q 50 26 72 0 q 28 90 28 53 q 50 153 28 126 q 111 179 72 179 q 154 168 135 179 z "},":":{"ha":222,"x_min":28,"x_max":194,"o":"m 111 515 q 50 542 72 515 q 28 606 28 568 q 50 668 28 642 q 111 694 72 694 q 172 668 150 694 q 194 606 194 642 q 172 542 194 568 q 111 515 150 515 m 111 0 q 50 26 72 0 q 28 90 28 53 q 50 153 28 126 q 111 179 72 179 q 172 153 150 179 q 194 90 194 126 q 172 26 194 53 q 111 0 150 0 z "},";":{"ha":222,"x_min":28,"x_max":196,"o":"m 111 515 q 50 542 72 515 q 28 606 28 568 q 50 668 28 642 q 111 694 72 694 q 172 668 150 694 q 194 606 194 642 q 172 542 194 568 q 111 515 150 515 m 154 168 q 185 137 175 157 q 196 92 196 117 q 160 -5 196 40 q 71 -56 125 -50 l 69 -49 q 111 0 104 -35 q 50 26 72 0 q 28 90 28 53 q 50 153 28 126 q 111 179 72 179 q 154 168 135 179 z "},"…":{"ha":611,"x_min":28,"x_max":583,"o":"m 111 0 q 50 26 72 0 q 28 90 28 53 q 50 153 28 126 q 111 179 72 179 q 172 153 150 179 q 194 90 194 126 q 172 26 194 53 q 111 0 150 0 m 306 0 q 244 26 267 0 q 222 90 222 53 q 244 153 222 126 q 306 179 267 179 q 367 153 344 179 q 389 90 389 126 q 367 26 389 53 q 306 0 344 0 m 500 0 q 439 26 461 0 q 417 90 417 53 q 439 153 417 126 q 500 179 461 179 q 561 153 539 179 q 583 90 583 126 q 561 26 583 53 q 500 0 539 0 z "},"!":{"ha":222,"x_min":28,"x_max":194,"o":"m 181 972 l 167 278 l 56 278 l 42 972 l 181 972 m 111 0 q 50 26 72 0 q 28 90 28 53 q 50 153 28 126 q 111 179 72 179 q 172 153 150 179 q 194 90 194 126 q 172 26 194 53 q 111 0 150 0 z "},"¡":{"ha":222,"x_min":28,"x_max":194,"o":"m 111 792 q 172 765 150 792 q 194 701 194 739 q 172 639 194 665 q 111 613 150 613 q 50 639 72 613 q 28 701 28 665 q 50 765 28 739 q 111 792 72 792 m 56 514 l 167 514 l 181 -181 l 42 -181 l 56 514 z "},"?":{"ha":592,"x_min":28,"x_max":564,"o":"m 269 903 q 160 865 210 903 q 80 763 111 826 q 39 628 49 700 l 28 628 l 47 917 q 86 929 65 919 q 113 942 107 939 q 186 974 151 963 q 269 986 221 986 q 485 922 407 986 q 564 738 564 857 q 543 628 564 675 q 491 547 522 581 q 408 471 460 514 q 312 376 346 417 q 265 278 278 336 l 154 278 q 205 421 167 364 q 308 543 243 478 q 381 627 357 593 q 411 704 406 661 q 414 740 414 729 q 374 858 414 814 q 269 903 333 903 m 207 0 q 146 26 168 0 q 124 90 124 53 q 146 153 124 126 q 207 179 168 179 q 268 153 246 179 q 290 90 290 126 q 268 26 290 53 q 207 0 246 0 z "},"¿":{"ha":592,"x_min":28,"x_max":564,"o":"m 385 792 q 446 765 424 792 q 468 701 468 739 q 446 639 468 665 q 385 613 424 613 q 324 639 346 613 q 301 701 301 665 q 324 765 301 739 q 385 792 346 792 m 322 -111 q 431 -73 382 -111 q 512 28 481 -35 q 553 164 543 92 l 564 164 l 544 -125 q 506 -137 526 -128 q 479 -150 485 -147 q 406 -183 440 -171 q 322 -194 371 -194 q 106 -130 185 -194 q 28 54 28 -65 q 31 93 28 65 q 58 184 36 144 q 107 253 79 224 q 182 322 135 282 q 280 416 246 376 q 326 514 314 456 l 438 514 q 386 369 425 428 q 283 247 347 311 q 212 165 236 199 q 181 88 188 131 q 178 51 178 63 q 218 -67 178 -22 q 322 -111 258 -111 z "},"·":{"ha":222,"x_min":28,"x_max":194,"o":"m 111 457 q 172 431 150 457 q 194 367 194 404 q 172 304 194 331 q 111 278 150 278 q 50 304 72 278 q 28 367 28 331 q 50 431 28 404 q 111 457 72 457 z "},"•":{"ha":297,"x_min":28,"x_max":269,"o":"m 149 499 q 238 460 206 499 q 269 367 269 421 q 238 275 269 314 q 149 236 206 236 q 60 275 92 236 q 28 367 28 314 q 60 460 28 421 q 149 499 92 499 z "},"*":{"ha":522,"x_min":28,"x_max":494,"o":"m 494 840 l 319 708 l 494 575 l 432 500 l 300 624 l 310 443 l 213 443 l 222 624 l 90 500 l 28 575 l 204 708 l 28 840 l 90 915 l 222 792 l 213 972 l 310 972 l 300 792 l 432 915 l 494 840 z "},"#":{"ha":776,"x_min":28,"x_max":749,"o":"m 728 569 l 646 569 l 593 361 l 682 361 l 661 278 l 572 278 l 503 0 l 371 0 l 440 278 l 253 278 l 183 0 l 51 0 l 121 278 l 28 278 l 49 361 l 142 361 l 194 569 l 94 569 l 115 653 l 215 653 l 294 972 l 426 972 l 347 653 l 535 653 l 614 972 l 746 972 l 667 653 l 749 653 l 728 569 m 461 361 l 514 569 l 326 569 l 274 361 l 461 361 z "},"/":{"ha":522,"x_min":28,"x_max":494,"o":"m 494 972 l 160 -206 l 28 -206 l 363 972 l 494 972 z "},"\\":{"ha":522,"x_min":28,"x_max":494,"o":"m 494 -206 l 363 -206 l 28 972 l 160 972 l 494 -206 z "},"(":{"ha":414,"x_min":28,"x_max":386,"o":"m 386 972 q 228 701 282 854 q 174 383 174 547 q 228 66 174 219 q 386 -206 282 -87 l 303 -206 q 98 58 168 -97 q 28 383 28 213 q 98 709 28 554 q 303 972 168 864 l 386 972 z "},")":{"ha":414,"x_min":28,"x_max":386,"o":"m 111 972 q 316 709 246 864 q 386 383 386 554 q 316 58 386 213 q 111 -206 246 -97 l 28 -206 q 186 66 132 -87 q 240 383 240 219 q 186 701 240 547 q 28 972 132 854 l 111 972 z "},"{":{"ha":439,"x_min":28,"x_max":411,"o":"m 411 889 q 315 853 346 889 q 272 735 283 818 q 261 489 261 653 q 256 425 261 446 q 233 394 250 404 q 178 379 215 385 l 178 369 q 233 351 215 363 q 256 321 250 340 q 261 261 261 301 q 272 14 261 92 q 313 -93 282 -64 q 411 -122 343 -122 l 411 -206 q 202 -172 263 -206 q 126 -56 142 -139 q 111 233 111 26 q 96 306 111 279 q 28 332 81 332 l 28 418 q 96 442 81 418 q 111 511 111 467 q 128 798 111 708 q 207 930 144 888 q 411 972 269 972 l 411 889 z "},"}":{"ha":439,"x_min":28,"x_max":411,"o":"m 28 972 q 232 930 169 972 q 311 798 294 888 q 328 511 328 708 q 343 442 328 467 q 411 418 358 418 l 411 332 q 343 306 358 332 q 328 233 328 279 q 313 -56 328 26 q 237 -172 297 -139 q 28 -206 176 -206 l 28 -122 q 126 -93 96 -122 q 167 14 157 -64 q 178 261 178 92 q 183 321 178 301 q 206 351 189 340 q 261 369 224 363 l 261 379 q 206 394 224 385 q 183 425 189 404 q 178 489 178 446 q 167 735 178 653 q 124 853 156 818 q 28 889 93 889 l 28 972 z "},"[":{"ha":322,"x_min":28,"x_max":294,"o":"m 294 889 l 153 889 l 153 -122 l 294 -122 l 294 -206 l 28 -206 l 28 972 l 294 972 l 294 889 z "},"]":{"ha":322,"x_min":28,"x_max":294,"o":"m 294 972 l 294 -206 l 28 -206 l 28 -122 l 169 -122 l 169 889 l 28 889 l 28 972 l 294 972 z "},"-":{"ha":446,"x_min":28,"x_max":418,"o":"m 418 343 l 28 343 l 28 426 l 418 426 l 418 343 z "},"­":{"ha":446,"x_min":28,"x_max":418,"o":"m 418 343 l 28 343 l 28 426 l 418 426 l 418 343 z "},"–":{"ha":571,"x_min":28,"x_max":543,"o":"m 543 343 l 28 343 l 28 426 l 543 426 l 543 343 z "},"—":{"ha":710,"x_min":28,"x_max":682,"o":"m 682 343 l 28 343 l 28 426 l 682 426 l 682 343 z "},"_":{"ha":571,"x_min":28,"x_max":543,"o":"m 543 -115 l 28 -115 l 28 -32 l 543 -32 l 543 -115 z "},"‚":{"ha":222,"x_min":28,"x_max":196,"o":"m 154 168 q 185 137 175 157 q 196 92 196 117 q 160 -5 196 40 q 71 -56 125 -50 l 69 -49 q 111 0 104 -35 q 50 26 72 0 q 28 90 28 53 q 50 153 28 126 q 111 179 72 179 q 154 168 135 179 z "},"„":{"ha":417,"x_min":28,"x_max":390,"o":"m 154 168 q 185 137 175 157 q 196 92 196 117 q 160 -5 196 40 q 71 -56 125 -50 l 69 -49 q 111 0 104 -35 q 50 26 72 0 q 28 90 28 53 q 50 153 28 126 q 111 179 72 179 q 154 168 135 179 m 349 168 q 380 137 369 157 q 390 92 390 117 q 355 -5 390 40 q 265 -56 319 -50 l 264 -49 q 306 0 299 -35 q 244 26 267 0 q 222 90 222 53 q 244 153 222 126 q 306 179 267 179 q 349 168 329 179 z "},"“":{"ha":431,"x_min":26,"x_max":403,"o":"m 111 917 q 172 890 150 917 q 194 826 194 864 q 172 764 194 790 q 111 738 150 738 q 68 749 88 738 q 37 780 47 760 q 26 825 26 800 q 62 922 26 876 q 151 972 97 967 l 153 965 q 111 917 118 951 m 319 917 q 381 890 358 917 q 403 826 403 864 q 381 764 403 790 q 319 738 358 738 q 276 749 296 738 q 245 780 256 760 q 235 825 235 800 q 270 922 235 876 q 360 972 306 967 l 361 965 q 319 917 326 951 z "},"”":{"ha":431,"x_min":28,"x_max":404,"o":"m 154 961 q 185 930 175 950 q 196 885 196 910 q 160 788 196 833 q 71 738 125 743 l 69 744 q 111 793 104 758 q 50 819 72 793 q 28 883 28 846 q 50 946 28 919 q 111 972 72 972 q 154 961 135 972 m 363 961 q 394 930 383 950 q 404 885 404 910 q 369 788 404 833 q 279 738 333 743 l 278 744 q 319 793 313 758 q 258 819 281 793 q 236 883 236 846 q 258 946 236 919 q 319 972 281 972 q 363 961 343 972 z "},"‘":{"ha":222,"x_min":26,"x_max":194,"o":"m 111 917 q 172 890 150 917 q 194 826 194 864 q 172 764 194 790 q 111 738 150 738 q 68 749 88 738 q 37 780 47 760 q 26 825 26 800 q 62 922 26 876 q 151 972 97 967 l 153 965 q 111 917 118 951 z "},"’":{"ha":222,"x_min":28,"x_max":196,"o":"m 154 961 q 185 930 175 950 q 196 885 196 910 q 160 788 196 833 q 71 738 125 743 l 69 744 q 111 793 104 758 q 50 819 72 793 q 28 883 28 846 q 50 946 28 919 q 111 972 72 972 q 154 961 135 972 z "},"«":{"ha":636,"x_min":28,"x_max":608,"o":"m 400 667 l 160 375 l 400 83 l 268 83 l 28 375 l 268 667 l 400 667 m 608 667 l 368 375 l 608 83 l 476 83 l 236 375 l 476 667 l 608 667 z "},"»":{"ha":636,"x_min":28,"x_max":608,"o":"m 160 667 l 400 375 l 160 83 l 28 83 l 268 375 l 28 667 l 160 667 m 368 667 l 608 375 l 368 83 l 236 83 l 476 375 l 236 667 l 368 667 z "},"‹":{"ha":428,"x_min":28,"x_max":400,"o":"m 400 667 l 160 375 l 400 83 l 268 83 l 28 375 l 268 667 l 400 667 z "},"›":{"ha":428,"x_min":28,"x_max":400,"o":"m 160 667 l 400 375 l 160 83 l 28 83 l 268 375 l 28 667 l 160 667 z "},"\"":{"ha":375,"x_min":28,"x_max":347,"o":"m 167 972 l 153 713 l 42 713 l 28 972 l 167 972 m 347 972 l 333 713 l 222 713 l 208 972 l 347 972 z "},"'":{"ha":194,"x_min":28,"x_max":167,"o":"m 167 972 l 153 713 l 42 713 l 28 972 l 167 972 z "},"":{"ha":1849,"x_min":0,"x_max":1821,"o":"m 1779 1111 l 1821 1111 l 1821 -206 l 1779 -206 l 1779 214 l 1251 206 l 1297 444 l 1251 690 l 1779 682 l 1779 1111 m 1201 113 q 1292 -122 1201 -75 q 1208 -190 1260 -167 q 1096 -214 1156 -214 q 985 -190 1038 -214 q 899 -122 933 -167 q 992 103 992 -76 l 992 206 l 940 444 l 992 690 l 992 792 q 899 1017 992 971 q 985 1085 933 1061 q 1096 1108 1038 1108 q 1208 1085 1156 1108 q 1292 1017 1260 1061 q 1201 782 1201 969 l 1201 681 l 1251 444 l 1201 214 l 1201 113 m 1183 1011 q 1146 1038 1168 1029 q 1100 1047 1124 1047 q 1055 1038 1075 1047 q 1024 1011 1035 1029 q 1061 965 1040 1001 q 1093 892 1082 928 l 1096 579 l 1101 579 l 1107 889 q 1137 962 1113 925 q 1183 1011 1161 999 m 1100 903 q 1072 969 1089 938 q 1038 1011 1054 1000 q 1101 1036 1058 1036 q 1138 1030 1119 1036 q 1168 1011 1156 1024 q 1131 966 1150 997 q 1100 903 1111 935 m 1608 424 l 1779 424 l 1779 469 l 1608 471 l 1364 644 l 1360 639 l 1588 444 l 1360 256 l 1364 250 l 1608 424 m 88 613 q 313 528 132 528 l 419 528 l 419 369 l 324 369 q 174 351 235 369 q 88 282 113 332 q 22 358 44 315 q 0 449 0 401 q 22 539 0 496 q 88 613 44 582 m 860 557 q 841 499 856 531 q 808 444 826 467 q 841 396 826 426 q 860 338 856 365 q 769 331 825 338 q 660 322 694 322 q 606 329 631 322 q 547 350 582 336 q 492 369 511 364 l 492 528 q 546 546 519 536 q 603 565 578 558 q 660 572 629 572 q 769 564 694 572 q 860 557 825 557 m 929 333 q 906 328 918 328 q 869 364 879 328 q 856 411 863 394 q 828 444 849 428 q 860 506 851 468 q 869 532 864 522 q 908 567 888 567 q 929 561 918 567 l 899 444 l 929 333 m 976 444 q 1013 365 976 393 q 1100 336 1050 336 q 1186 365 1150 336 q 1222 444 1222 393 q 1186 529 1222 499 q 1100 560 1150 560 q 1013 529 1050 560 q 976 444 976 499 m 994 444 q 1026 517 994 490 q 1101 544 1058 544 q 1174 518 1143 544 q 1204 444 1204 492 q 1173 376 1204 401 q 1100 351 1142 351 q 1026 376 1057 351 q 994 444 994 401 m 440 528 q 458 539 440 539 q 476 528 476 539 l 476 369 q 471 361 476 364 q 458 358 465 358 q 446 361 451 358 q 440 369 440 364 l 440 528 m 393 450 l 219 453 q 147 485 183 464 q 100 522 110 506 q 73 491 82 511 q 64 446 64 471 q 73 400 64 422 q 100 363 82 378 q 149 409 113 385 q 222 439 186 433 l 393 444 l 393 450 m 100 508 q 142 474 111 492 q 208 446 174 457 q 145 415 176 435 q 100 378 114 396 q 81 408 88 390 q 75 444 75 426 q 100 508 75 488 m 1043 444 q 1060 410 1043 422 q 1099 399 1076 399 q 1138 410 1121 399 q 1154 444 1154 422 q 1139 485 1154 471 q 1101 499 1124 499 q 1061 484 1079 499 q 1043 444 1043 469 m 1024 -112 q 1055 -140 1035 -131 q 1100 -149 1075 -149 q 1146 -140 1124 -149 q 1183 -112 1168 -131 q 1137 -63 1161 -100 q 1107 10 1113 -26 l 1101 319 l 1096 319 l 1093 7 q 1061 -66 1082 -29 q 1024 -112 1040 -103 m 1100 -4 q 1131 -67 1111 -36 q 1168 -112 1150 -99 q 1138 -131 1156 -125 q 1101 -137 1119 -137 q 1038 -112 1058 -137 q 1072 -70 1054 -101 q 1100 -4 1089 -39 z "},"":{"ha":1485,"x_min":28,"x_max":1485,"o":"m 1485 435 l 919 265 l 69 251 l 69 -206 l 28 -206 l 28 1111 l 69 1111 l 69 643 l 919 629 l 1485 435 m 69 460 l 69 428 l 1082 429 l 1111 439 l 1082 456 l 69 460 z "}," ":{"ha":278,"x_min":0,"x_max":0,"o":""},"¢":{"ha":565,"x_min":28,"x_max":538,"o":"m 361 232 q 514 325 456 240 l 528 322 q 462 210 504 257 q 361 147 419 164 l 361 0 l 306 0 l 306 139 l 297 139 q 150 188 211 139 q 58 317 89 238 q 28 489 28 397 q 62 661 28 581 q 159 792 96 742 q 306 847 222 843 l 306 972 l 361 972 l 361 844 q 417 830 393 840 q 472 804 442 819 q 538 778 517 781 l 496 574 l 485 574 q 449 701 482 646 q 361 767 415 756 l 361 232 m 172 507 q 207 334 172 411 q 306 238 242 257 l 306 765 q 209 674 246 749 q 172 507 172 600 z "},"$":{"ha":599,"x_min":28,"x_max":571,"o":"m 571 269 q 507 90 571 160 q 333 4 443 19 l 333 -69 l 278 -69 l 278 0 q 175 13 217 0 q 89 47 133 25 q 28 69 51 67 l 104 322 l 115 322 q 110 260 110 293 q 153 131 110 178 q 278 83 197 83 l 278 432 l 254 450 q 149 533 190 497 q 79 615 108 569 q 46 715 50 661 q 103 897 39 822 q 278 985 167 972 l 278 1042 l 333 1042 l 333 986 q 424 972 388 983 q 503 940 460 960 q 564 917 544 919 l 488 664 l 476 664 q 483 732 483 703 q 444 858 483 813 q 333 903 406 904 l 333 571 l 381 535 q 481 452 444 486 q 544 372 518 418 q 571 269 571 326 m 201 776 q 221 693 201 731 q 278 618 240 656 l 278 894 q 221 850 240 881 q 201 776 201 819 m 333 92 q 399 141 376 106 q 422 226 422 176 q 419 260 422 238 q 333 388 410 322 l 333 92 z "},"€":{"ha":668,"x_min":28,"x_max":640,"o":"m 564 319 l 640 67 q 601 54 622 64 q 575 42 581 44 q 501 9 536 21 q 418 -3 467 -3 q 263 53 329 -3 q 158 201 196 108 q 108 407 119 294 l 28 407 l 28 463 l 104 463 l 104 492 l 104 525 l 28 525 l 28 581 l 108 581 q 207 870 126 754 q 418 986 288 986 q 501 974 467 986 q 575 942 536 963 q 601 929 581 939 q 640 917 622 919 l 564 664 l 553 664 q 558 729 558 693 q 523 855 558 807 q 429 903 488 903 q 314 811 358 903 q 257 581 269 719 l 458 581 l 458 525 l 254 525 q 253 492 253 514 l 253 463 l 458 463 l 458 407 l 257 407 q 313 173 268 265 q 429 81 357 81 q 523 129 488 81 q 558 256 558 178 q 553 319 558 290 l 564 319 z "},"£":{"ha":668,"x_min":28,"x_max":640,"o":"m 408 83 q 534 144 489 83 q 599 322 579 206 l 610 322 l 592 0 l 35 0 l 35 42 l 33 83 q 104 125 72 88 q 154 213 136 163 q 172 303 172 264 q 165 365 172 336 q 139 444 157 394 q 115 511 124 482 l 28 511 l 28 567 l 100 567 q 89 683 89 619 q 135 851 89 783 q 255 953 181 919 q 418 986 329 986 q 501 974 467 986 q 575 942 536 963 q 601 929 581 939 q 640 917 622 919 l 564 664 l 553 664 q 558 728 558 693 q 520 856 558 808 q 418 903 482 903 q 285 849 339 903 q 231 683 231 794 q 243 567 231 626 l 458 567 l 458 511 l 257 511 q 268 478 260 500 q 292 385 285 419 q 300 306 300 350 q 272 186 300 244 q 197 83 244 128 l 408 83 z "},"¥":{"ha":731,"x_min":28,"x_max":703,"o":"m 703 965 q 622 906 650 949 l 451 581 l 535 581 l 535 525 l 436 525 l 436 463 l 535 463 l 535 407 l 436 407 l 436 90 q 449 41 436 64 q 485 7 461 18 l 485 0 l 249 0 l 249 7 q 285 41 272 18 q 297 90 297 64 l 297 407 l 201 407 l 201 463 l 297 463 l 297 525 l 201 525 l 201 581 l 279 581 l 108 906 q 28 965 81 949 l 28 972 l 283 972 l 283 965 q 250 918 250 951 q 253 896 250 903 l 365 632 l 478 896 q 481 918 481 903 q 447 965 481 951 l 447 972 l 703 972 l 703 965 z "},"+":{"ha":571,"x_min":28,"x_max":543,"o":"m 543 426 l 543 343 l 328 343 l 328 128 l 244 128 l 244 343 l 28 343 l 28 426 l 244 426 l 244 642 l 328 642 l 328 426 l 543 426 z "},"−":{"ha":571,"x_min":28,"x_max":543,"o":"m 543 343 l 28 343 l 28 426 l 543 426 l 543 343 z "},"×":{"ha":501,"x_min":28,"x_max":474,"o":"m 474 592 l 307 407 l 474 224 l 413 167 l 251 344 l 90 167 l 28 221 l 196 407 l 28 592 l 92 646 l 251 468 l 413 646 l 474 592 z "},"÷":{"ha":571,"x_min":28,"x_max":543,"o":"m 278 515 q 217 542 239 515 q 194 606 194 568 q 217 668 194 642 q 278 694 239 694 q 339 668 317 694 q 361 606 361 642 q 339 542 361 568 q 278 515 317 515 m 543 343 l 28 343 l 28 426 l 543 426 l 543 343 m 278 56 q 217 82 239 56 q 194 146 194 108 q 217 208 194 182 q 278 235 239 235 q 339 208 317 235 q 361 146 361 182 q 339 82 361 108 q 278 56 317 56 z "},"=":{"ha":571,"x_min":28,"x_max":543,"o":"m 543 440 l 28 440 l 28 524 l 543 524 l 543 440 m 543 246 l 28 246 l 28 329 l 543 329 l 543 246 z "},">":{"ha":626,"x_min":28,"x_max":599,"o":"m 28 215 l 457 365 l 28 514 l 28 632 l 599 410 l 599 319 l 28 97 l 28 215 z "},"<":{"ha":626,"x_min":28,"x_max":599,"o":"m 28 319 l 28 410 l 599 632 l 599 514 l 169 365 l 599 215 l 599 97 l 28 319 z "},"%":{"ha":828,"x_min":28,"x_max":800,"o":"m 207 519 q 74 585 121 519 q 28 744 28 651 q 49 859 28 804 q 110 947 69 914 q 207 981 150 981 q 336 912 290 981 q 382 750 382 843 q 336 588 382 657 q 207 519 290 519 m 765 972 l 189 0 l 57 0 l 633 972 l 765 972 m 207 558 q 259 616 240 558 q 278 751 278 674 q 259 885 278 829 q 207 942 240 942 q 154 884 174 942 q 135 749 135 826 q 153 615 135 671 q 207 558 172 558 m 625 0 q 492 66 539 0 q 446 225 446 132 q 467 340 446 285 q 528 428 488 394 q 625 461 568 461 q 754 392 708 461 q 800 231 800 324 q 754 69 800 138 q 625 0 708 0 m 625 39 q 677 97 658 39 q 696 232 696 154 q 677 366 696 310 q 625 422 658 422 q 572 365 592 422 q 553 229 553 307 q 572 95 553 151 q 625 39 590 39 z "},"@":{"ha":1004,"x_min":50,"x_max":969,"o":"m 518 675 q 775 619 674 675 q 923 472 876 563 q 969 279 969 382 q 940 109 969 189 q 858 -19 911 29 q 739 -68 806 -68 q 585 106 594 -67 q 529 27 565 54 q 446 0 493 0 q 317 70 364 0 q 271 239 271 140 q 295 369 271 307 q 367 469 319 431 q 482 507 414 507 q 583 443 550 507 l 583 468 l 722 496 l 722 136 q 735 52 722 85 q 768 19 749 19 q 817 103 796 19 q 838 263 838 186 q 806 431 838 353 q 702 557 774 508 q 518 606 631 606 q 336 551 413 606 q 221 411 260 497 q 182 231 182 325 q 214 74 182 146 q 309 -40 246 3 q 464 -79 372 -82 l 464 -176 q 240 -126 333 -182 q 98 23 146 -71 q 50 225 50 117 q 103 443 50 340 q 263 610 157 546 q 518 675 368 675 m 469 83 q 485 82 475 82 q 544 117 517 82 q 583 215 572 151 l 583 321 q 553 407 574 376 q 494 438 533 438 q 426 383 450 438 q 401 254 401 328 q 419 141 401 190 q 469 83 438 92 z "},"&":{"ha":736,"x_min":28,"x_max":708,"o":"m 708 343 q 669 309 688 333 q 621 235 651 285 q 609 216 615 226 q 594 193 603 206 l 682 46 l 532 -42 l 479 60 q 293 -3 394 -3 q 161 27 222 -3 q 64 110 100 57 q 28 233 28 164 q 32 279 28 257 q 95 408 44 350 q 231 531 146 467 l 183 622 q 133 793 133 717 q 200 935 133 885 q 375 986 267 986 q 541 938 481 986 q 601 804 601 890 q 600 774 601 785 q 542 649 592 707 q 401 515 492 592 l 533 293 q 557 435 557 364 q 546 531 557 479 l 557 531 l 708 343 m 342 615 q 428 707 397 663 q 458 801 458 751 q 440 874 458 844 q 374 903 421 903 q 306 870 331 903 q 281 785 281 838 q 321 650 281 717 l 342 615 m 313 82 q 439 136 381 82 l 290 419 q 183 269 204 339 q 175 218 175 243 q 213 122 175 161 q 313 82 251 82 z "}}}
